<svg xmlns="http://www.w3.org/2000/svg" xml:space="preserve" id="Layer_1" x="0" y="0" viewBox="0 0 3840 5830"><style>.st0{fill:#fff}</style><path id="Tower_A" d="m693.2 2402 46.7 22.7 16.2 812.4 19.8 13.1v26.2l-29.5 13.8 109.1 57.7 165.1-65.1 5.3 3.3 43.3-16.7-.7-9.9-2.2-.2-.4-21.8 9-4.4v10.3l7.2-2.2-1.2-10.8 33.8-14.1-.6 11.1 6.9-2-1.1-11.2 50.8-21.3v9.5l7.4-1.3-1-9.9 52.8-22.6v9.6l7.5-1.4-.3-11.6 31.4-12.9.8 9.4 6.2-1v-11.4l26.7-10.8v10.3l6.9-1.2v-11.8l4.4-.4-1.2 15.2 20.2 7.8 39.7-14.8-1.3-34.6 101.9-42 .4 8.8 6.5-.3v-11.1l52.1-21.5.6 9.2 7.3-1.5v-10.8l29.3-12.4v9.2l7.3-1.2v-10.9l26.5-11.2v9.1l5.6-.3v-11l4.9-3.9-.8 18.9 17.4 8.2 42.2-18.5-.4-9.4-2.1-.2.3-21.4 10-3.3-1.1 9.1 6.5-1.9-1.3-9.8 31.6-12.8-.4 9.1 6.7-1.2v-10.1l77.2-33.3V2294l-110.9-70 .1-77.9 73.8-30.8-48.7-35.2-112.6-53.2-862.5 340.4z" class="st0"/><path id="Tower_B" d="m2025.4 2345.6-55.1 33.2 52 24.7v36.6l-52.8 22.7 6.3 3.8-.6 8.2-5.2 1v3.9l6 1.2-2.7 82.1-56.8-23.5-10.7 2-1.8-6.3-7.7-.3v-3.5l.8-3.8-1.8-1.3-2.8-5.3v-3.3s-3.7-1.3-4.3-1.7c-.7-.3-6.5-5.5-6.5-5.5l-6.8 2-6.5 4-3.2 4v6.8l-5.8 6.3-4.8 8.3-4 6.2-6.7 6.5v16.8l-4.5 1.3v4.5h-5.5l-1.3 3.7 2.7 646.7 18.6 9.8-.1 15.2 9.6-.5.2-9.9 43.6 23.5-.4 14.4 9.5-3-.1-8.2 30.3 14.6 29.2-12.4-2 31 35.9 18.1-.4-6.2 45.6 22.8-.7 13.8h9.4l1.4-9 43.9 21.2-1.4 15.8 9.3-3 1.1-7.2 37.4 19-.8 14.6 5 1.3 1-13.8 48.5 23.6v14.4h8.8l.4-10.1 4.6 2.6-.2 10.3 3.1.6v-10.3l7.1 5-.7 10.9h8.3l-1.7-9.1 10.9 5.3 29.7-12.4-2.2 31.3 82 35.9-.3 14.4 9.9-.8.9-9.7 44.8 23.9-.7 15.3 7-3.4.4-9.3 40.7 20.6.6 16.3 8.9-3.8-.8-8.3 45.3 22.6v15.9l9.9-4-1-7.7s32 16.1 32.4 16.1 30.7-13.6 30.7-13.6l-1.9 32.6 36.1 17.6v-4.6l46.7 23.3 1.2 15.8 9.2-2.3.4-8.3 49.3 23.6.4-11.3-3.3-6.7-8-4.4-.6-3.9 9-3.1.7-3.8-1.7-5.8 4.8-4.5 2-3.8 8.9-4.6s13.9 4 14.2 4 6.8 1.7 6.8 1.7l198.1-88.1v-4.7l4.4-8.2 7.3-3.6 9.8 2.9 8-1.3 16-6 13.2-646.8v-2.7l4.3-9.2s-3.5-4.7-4-5-4.8-2.3-4.8-2.3l-5.3-4.3-5.5-3.5s-9.7-4.3-10.5-4.3-1.8-.5-4.7-.8c-2.8-.3-4.2-5.5-4.2-5.5l-9.5-2-11.8-11-17.5-3-7.3 2.3s-6-6.5-6.8-6.5-12.2 8.7-12.2 8.7-11.7 5.2-12.5 5.2-2.3 8.5-2.3 8.5l-29.7-9.3-3-5.5-1.7-5.8-.5-121.3 4.8-2.2-.7-3.6-4.2-.5v-8.4h3.8l2.2-6.9 5.9-5.6-46.7-33.8 5.8-2.4v-5.6l-706.4-325.1-110.7 45.4z" class="st0"/></svg>