<svg xmlns="http://www.w3.org/2000/svg" xml:space="preserve" id="Layer_1" x="0" y="0" viewBox="0 0 3840 5830"><style>.st0{fill:#fff}</style><path id="Floor_1" d="m2663.5 3481.5-36 5.17 39.5 8.33v4l-354.67 77.83-43-11.33-57.16 6 43.83 13.83v4.5l-305.33 67.34-3.34-7.34-3.16 10.17-11 1.67-1.17-4.34v6.67l-9-8 2.17 8.33-48.17 10.34 2.33-13-10.66 9.33 4.66-23.83-4.16 4.66 1-13.33-6.5 15.67-5.17-17.34-3.17 11.84-10.33 16.5-4-25.5 1 26.5-2 1.5-15.17-19.34-3.5-1.33 13.15 24.3c-.4-.51-6.83-8.83-7.31-9.63-.5-.84-6.34-5.5-6.34-5.5l9.84 15.5 4.83 10.66-4.33 2.17-3.5-3-6.67-1.83-25.17-6.84 17 9.67 6.67 6.5-39.17 6.33-11.83 1.84 1.17 1.5-8.67 1.33-41-19.33-66.75 17.66 25.31 19.67-341.34 76.22L1105.89 3608l1.61-5 40.17-6.5.99-21.86.76.53 25.75 17.58 67.83-10.53v59.61l46.5 33 64.5-10.5 50 29.34 25.83-4.17L1588 3657v-24.83l-6.33-6.84L1631 3617l8 6.83 81-13.16v-9.84l70.33-13.16 50 20 130.84-24.34 5.83 1.84 21.67-4.5v-38.34l8.5-2 62 22 124.33-24.83v-22.67l-6.83-3.66 15.83-1.5 11.33 5 11.84-1v-6.17l23.5-2.67 19.33 4.17v-12.17l42.33-7.83 57 14.67 106.34-23-.84-21.17 53.5 11 91.67-17.5.83-21.17 8.5 2.34h35.5v-11.84L2689 3418l57.67 10.83 78.73-14.48 1.93 50.65-121 26.67z" class="st0"/><path id="Floor_2" d="m2825.5 3414.33-78.83 14.5L2689 3418l-25.67 4.33v11.84h-35.5l-8.5-2.34-.83 21.17-91.67 17.5-53.5-11 .84 21.17-106.34 23-57-14.67-42.33 7.83V3509l-19.33-4.17-23.5 2.67v6.17l-11.84 1-11.33-5-15.83 1.5 6.83 3.66v22.67l-124.33 24.83-62-22-8.5 2v38.34l-21.67 4.5-5.83-1.84-130.84 24.34-50-20-70.33 13.16v9.84l-81 13.16-8-6.83-49.33 8.33 6.33 6.84V3657l-158.17 32.5-25.83 4.17-50-29.34-64.5 10.5-46.5-33v-59.61l-67.83 10.53-25.75-17.58-13.67-9.5 1.58-30.34h11.59l.41-28 .99-1.56 25.12 14.23 67.78-8.44v54.66l49.11 29.34 61.56-10 27.11 15.33 48.67-8.22v16l158.66-28.23 2.23-29.55 41.11-6.45 15.33 4.23 80.67-12.67v-8.44l62.22-10 49.78 18.66L1999 3508v-28.89h7.78l62.22 16 125.33-21.78v-23l6.84-2.5 16.83 4.5 57.83-9.5v-7.16l35.34-5.34 55.83 13.17 107.11-18.17v-22l58.45 12 87.11-15.55 1.33-22.89 6.44 1.33 60.89-11.33 57.34 10.22 79.32-13.55z" class="st0"/><path id="Floor_3" d="m2745.83 3325.33 79.17-12.13v50.36l-79.33 13.55-57.34-10.22-60.89 11.33-6.44-1.33-1.33 22.89-87.11 15.55-58.45-12v22L2367 3443.5l-55.83-13.17-35.34 5.34v7.16l-57.83 9.5-16.83-4.5-6.84 2.5v23L2069 3495.11l-62.22-16H1999V3508l-159.33 28.22-49.78-18.66-62.22 10v8.44l-80.67 12.67-15.33-4.23-41.11 6.45-2.23 29.55-158.66 28.23v-16l-48.67 8.22-27.11-15.33-61.56 10-49.11-29.34v-54.66l-67.78 8.44-38.44-21.78-.67-24.22 1.67-.33-.22-4.78 11.89-1.22.52-28.69 25.14 13.35 69-7.16v45.5l47.34 24.66 63.83-8.83 50.33 20.17 24.34-4.34v4.56l158.27-24.67 1.78-24.44 41.45-6.78 12 2.5 81.66-10.5v-5.83l66.84-9.5 47.16 16.16 160-23.16L1998 3413h9.83l60.5 15.33 125.84-19.33.83-20.5 19.67 2.33 57.33-9.5v-4.5l40.17-4 54.66 10.17 105.84-15.67-1.67-17.5 60.67 8.34 132.83-22.34v-15.16l23.67-3.67z" class="st0"/><path id="Floor_4" d="m2825.17 3313.17-79.34 12.16-57.66-8.33-23.67 3.67v15.16l-132.83 22.34-60.67-8.34 1.67 17.5-105.84 15.67-54.66-10.17-40.17 4v4.5l-57.33 9.5-19.67-2.33-.83 20.5-125.84 19.33-60.5-15.33H1998l1.33 27.67-160 23.16-47.16-16.16-66.84 9.5v5.83l-81.66 10.5-12-2.5-41.45 6.78-1.78 24.44-158.27 24.67v-4.56l-24.34 4.34-50.33-20.17-63.83 8.83-47.34-24.66v-45.5l-69 7.16-37.66-20-.59-30.5 12.84-.91 1.41-36.17 24.56 11.25 70-5.78-.89 44.22 48.44 20 63.12-7.55 27.33 14 48.22-6.89v6.89l156.45-18.67-.89-22.22 43.77-4.22 10.67 2.66 84.89-9.55v-4l63.78-7.33 47.11 13.11 161.55-19.34V3348h8.45l61.55 13.33 124.89-16v-17.77h19.78l58.22-5.56v-3.11l39.11-6 55.34 9.78 104.66-12.67v-15.33l60.45 6.44 131.33-17.33v-17.56l25.34-1.11 57.33 6.45 78.22-9.56v-14.23z" class="st0"/><path id="Floor_5" d="m2745.67 3223.11 78.44-8V3262l-78.22 9.56-57.33-6.45-25.34 1.11v17.56l-131.33 17.33-60.45-6.44V3310l-104.66 12.67-55.34-9.78-39.11 6v3.11l-58.22 5.56h-19.78v17.77l-124.89 16-61.55-13.33h-8.45v23.33l-161.55 19.34-47.11-13.11-63.78 7.33v4l-84.89 9.55-10.67-2.66-43.77 4.22.89 22.22-156.45 18.67V3434l-48.22 6.89-27.33-14-63.12 7.55-48.44-20 .89-44.22-70 5.78-36.89-16.89v-30.19l11.38-.3 1.57-26.46 25.72 10.17 68.11-5.22v33.11l48.22 18.34 63.11-6.12s25.56 8.45 25.56 8.56c0-.04 49.22-5.89 49.22-5.89v12.11l156.44-19.22.89-7.11-5.55-.67.89-7.55 47.55-6.89 24.33 8.78 69.73-6.81.41-11.58 63.98-5.06 49.33 12.22 131.11-14.44 27.33-2.45-1.11-22h9.11s59.56 12.18 58.51 12.66c3.65-.38 127.49-12.66 127.49-12.66l1.25-17.15 117.75-10.62 55.5 6.5 105.95-11.61v-13.34l58 6.45 132.89-11.78v-14.67l23.11-1.33z" class="st0"/><path id="Floor_6" d="m2824.11 3215.11-78.44 8-58.89-6.22-23.11 1.33v14.67l-132.89 11.78-58-6.45v13.34l-105.95 11.61-55.5-6.5-117.75 10.62-1.25 17.15s-123.84 12.28-127.49 12.66c1.05-.48-58.51-12.66-58.51-12.66h-9.11l1.11 22-27.33 2.45-131.11 14.44-49.33-12.22-63.98 5.06-.41 11.58-69.73 6.81-24.33-8.78-47.55 6.89-.89 7.55 5.55.67-.89 7.11-156.44 19.22v-12.11s-49.22 5.85-49.22 5.89c0-.11-25.56-8.56-25.56-8.56l-63.11 6.12-48.22-18.34v-33.11l-68.11 5.22-39.34-15.55 3.23-28.56 10 2.11.77-35.52 25 7.52 69.34-3.33-.67 25.33 48 14.42 63.78-5.75 48.89 14.11 183.66-16.94v-5.73l-4.44-1.88v-5.78l45.78-3.11 11.44 3 82.89-5V3245l63.83-5 47.67 8.17 162.33-12.17v-15.5l5.84-.83 62.16 9.16 125.84-10.16v-13.84h6.83l13.17 1.17 95.66-5.83 57.67 4.66 105.17-10.16V3184l57.66 4.83L2663 3178v-9.83l23-1.17 60 4.5 76.57-6.84z" class="st0"/><path id="Floor_7" d="m2735.22 3119.78 87.35-5.56v50.44l-76.57 6.84-60-4.5-23 1.17v9.83l-133.17 10.83-57.66-4.83v10.67L2367 3204.83l-57.67-4.66-95.66 5.83-13.17-1.17h-6.83v13.84l-125.84 10.16-62.16-9.16-5.84.83v15.5l-162.33 12.17-47.67-8.17-63.83 5v6.67l-82.89 5-11.44-3-45.78 3.11v5.78l4.44 1.88v5.73l-183.66 16.94-48.89-14.11-63.78 5.75-48-14.42.67-25.33-69.34 3.33s-37.08-11.16-37.66-11.33l1.77-29.33 10.56 1.22-.11-35.33 2.27-.51h.01l23.91 6.12 68.81-2.61v16.66l48.33 11.45 63.22-2.89 48.89 7.39 182.5-10-2.16-9.42 43.83-2.92 11.67 2.92 83.33-4.75v-5l63.17-3.5 49.5 6.17 161.27-8.45-2.11-13.44h8.78l61.39 7.05 124.67-7.05v-10.11h6.5l14.5.83 94.66-6.5 56.67 3.5 87-6.17 19.94 1.67v-7.89l56.23 3.56 133.33-9.11.56-8h22.88z" class="st0"/><path id="Floor_8" d="m2822.57 3114.22-87.35 5.56-49.78-3.22h-22.88l-.56 8-133.33 9.11-56.23-3.56v7.89l-19.94-1.67-87 6.17-56.67-3.5-94.66 6.5-14.5-.83h-6.5v10.11l-124.67 7.05-61.39-7.05h-8.78l2.11 13.44-161.27 8.45-49.5-6.17-63.17 3.5v5l-83.33 4.75-11.67-2.92-43.83 2.92 2.16 9.42-182.5 10-48.89-7.39-63.22 2.89-48.33-11.45v-16.66l-68.81 2.61-23.92-6.12-13.66-2.72 1.94-28.66 10 .44.86-35.65 25.26 3.98s69.33-3.77 68.66-3c-.66.78.01 13 .01 13l48.21 6 63.56-2.66 50.89 6.89 180.67-7.34v-8l40.66-.89 12.45 3.12 83.33-2.67v-5.56l62.89-2.22L1841 3106l158.44-5.11v-8.22h9.34l59.78 2.89 125.77-2.89v-7.78h4.89l13.78.89 94.89-4.45 58.44 2.67 84.23-2.67h20.66v-4.44l60.45 1.55 84.44-4.44 46.22-1.11v-6.45h23.11l50.45 1.78 86.09-3.77v-.64z" class="st0"/><path id="Floor_9" d="m2736.5 3017.83 85.48-3.16v49.78l-86.09 3.77-50.45-1.78h-23.11v6.45l-46.22 1.11-84.44 4.44-60.45-1.55v4.44h-20.66l-84.23 2.67-58.44-2.67-94.89 4.45-13.78-.89h-4.89v7.78l-125.77 2.89-59.78-2.89h-9.34v8.22L1841 3106l-51.11-4.89-62.89 2.22v5.56l-83.33 2.67-12.45-3.12-40.66.89v8l-180.67 7.34-50.89-6.89-63.56 2.66-48.21-6s-.67-12.22-.01-13c.67-.77-68.66 3-68.66 3l-38.06-6 2.83-29.77 10.34 1.5.66-37.17.61-.34 24.31 1.92 68.92-.75v6l48 1.67 61.16-.67 27.34 2.84 206.66-4.84v-2.16l40.84-.67 12.33 2.33 83.17-.71-1-4.12 69.5-.83 52.16 3 159-6.34 71.17 1.17 111.67-2.17v-3h22.66l95.17-2.66 57.83 2.66 105-2v-3.16l60.5.83 83.67-.83h47.33v-4.34h23.84z" class="st0"/><path id="Floor_10" d="m2821.98 3014.67-85.48 3.16-50.33-2h-23.84v4.34H2615l-83.67.83-60.5-.83v3.16l-105 2-57.83-2.66-95.17 2.66h-22.66v3l-111.67 2.17-71.17-1.17-159 6.34-52.16-3-69.5.83 1 4.12-83.17.71-12.33-2.33-40.84.67v2.16l-206.66 4.84-27.34-2.84-61.16.67-48-1.67v-6l-68.92.75-37.92-3 1.84-28.41 11.33-.84.17-37s.07-.11.22-.32l24.11.99 180.33-3h50.17l25.5-1.33 195.17 2.16 15.16 2.17 151.5-1.33 57.5-.84 153.34 1.17 61-1.17h129.5l111.16.84 56.5.16 157.84 1.17h160.83l59 .67h77.84z" class="st0"/><path id="Floor_11" d="M2821.34 2966.67h-77.84l-59-.67h-160.83l-157.84-1.17-56.5-.16-111.16-.84h-129.5l-61 1.17-153.34-1.17-57.5.84-151.5 1.33-15.16-2.17-195.17-2.16-25.5 1.33h-50.17l-180.33 3-36.67-1.5 1.78-27.06 10.89-.33.44-37.78.59-.91 24.08-1.2 68.78.95v-7.61l49-6s60.61-.62 61.61 0c1 .61 230 1.61 230 1.61l-32.17 2.16 75.84 2.34 11.66-1.84 82.5 4.17 69.5 2 43.67-1.67 131.17 2.17 27.16-1v6.33h10.34l58.66-2.66 123.17 2.66-51.83.84 58.16 2.66 111.67 2.34 57.67-2 104.66 2v6.83l55.17-4.83 89.17 2.16-47.34 2.67 50.84 2.33h66.5l56.66-.83 78.6 2z" class="st0"/><path id="Floor_12" d="m2820.93 2917-78.6-2-56.66.83h-66.5l-50.84-2.33 47.34-2.67-89.17-2.16-55.17 4.83v-6.83l-104.66-2-57.67 2-111.67-2.34-58.16-2.66 51.83-.84-123.17-2.66-58.66 2.66h-10.34v-6.33l-27.16 1-131.17-2.17-43.67 1.67-69.5-2-82.5-4.17-11.66 1.84-75.84-2.34 32.17-2.16s-229-1-230-1.61c-1-.62-61.61 0-61.61 0l-49 6v7.61l-68.78-.95-37.78 1.89v-28.28l14.17-.5-.17-37 24.11-5.44 68.56 2.72v-15.05l49.33-10.45 61.11 2.78-16 4.22 41.45-5.22 51.33-4.56 155.89 6.78-35.11 5.67 76.44 4.78 11.12-3.78 81.77 5.11 1.11 4.22 68 .67 54.45-3.34 121.33 5.12-12.44 2.66 41.11 6.22h8.67l62.66-3.94 118.22 3.94-51.11 4.67s59.34 2.89 58.23 3.11c-1.12.22 15.33-1.78 15.33-1.78l58.89 5.56 36.89 2 58.44-2.89 85.11 1.56-9.55 3.33h28.44l.89 5.11 74.44-3.11 67.78 3.11h-46v4l33.56 3.11 17.78-1.33 41.33 1.33v2.67h22.22l53.11-2.89 84.59 2.89z" class="st0"/><path id="Floor_13" d="m2819.81 2866.89-84.59-2.89-53.11 2.89h-22.22v-2.67l-41.33-1.33-17.78 1.33-33.56-3.11v-4h46l-67.78-3.11-74.44 3.11-.89-5.11h-28.44l9.55-3.33-85.11-1.56-58.44 2.89-36.89-2-58.89-5.56s-16.45 2-15.33 1.78c1.11-.22-58.23-3.11-58.23-3.11l51.11-4.67-118.22-3.94-62.66 3.94h-8.67l-41.11-6.22 12.44-2.66-121.33-5.12-54.45 3.34-68-.67-1.11-4.22-81.77-5.11-11.12 3.78-76.44-4.78 35.11-5.67-155.89-6.78-51.33 4.56-41.45 5.22 16-4.22-61.11-2.78-49.33 10.45v15.05l-68.56-2.72-24.11 5.44s-12.44-.66-13-.83l1-28.72 12.34.44-.23-38.78 25.14-6.19 67.92 3.79.67-21.87 48.66-13.5 62.84 3.5 22.66-5.84 52.84 3.67v-5.5l154.83 8.83-36.83 11.5 76.83 4.67 12.83-2.17 82.84 6v3.84l66 2.16 46.83-6.5 159.5 8.34-1.33 14.16h7.66l62-7.33 124.17 7.33-54.33 6.84 58.66 4.16 15.84-4 57 4v5.5l38 2 57.5-4.83 82.66 3.83 22.67-.83v10.67l52.67-2.5 90.66 3.66-45.83 1.5v6.67l33.33 1 17-3 40.67 3 1.17 4.83 72.5-3 86.46 3z" class="st0"/><path id="Floor_14" d="M2819.13 2768.17v48.66l-86.46-3-72.5 3-1.17-4.83-40.67-3-17 3-33.33-1v-6.67l45.83-1.5-90.66-3.66-52.67 2.5V2791l-22.67.83-82.66-3.83-57.5 4.83-38-2v-5.5l-57-4-15.84 4-58.66-4.16 54.33-6.84-124.17-7.33-62 7.33h-7.66l1.33-14.16-159.5-8.34-46.83 6.5-66-2.16v-3.84l-82.84-6-12.83 2.17-76.83-4.67 36.83-11.5-154.83-8.83v5.5l-52.84-3.67-22.66 5.84-62.84-3.5-48.66 13.5-.67 21.87-67.92-3.79-25.14 6.19-11.86 1.39-1.25-29.5 14-1.08v-36.47l24.67-9.11 69 5.11v-28.22l48.22-18.34 62.67 5.56 23.11-7.45 52.33 4-1-8.22 154.67 13.11-41.78 12.67 84.34 6.89 11.55-3.78 82.72 7.67-1 5.5 64 5.33 52.5-9.67 155.17 13v16.48h9.33l60.67-9.81s122.67 10 121.83 10.5c-.83.5-51.44 8.89-51.44 8.89l56.11 4.78 17.44-4.78s58 5.78 57.67 6 0 5.78 0 5.78l37.22 2.66 56.67-6 87 6.56 18.11 1 .78 13.33 57.55-7.11 16.34 2.22 70.55 4.89-46.83 7.61 49.67 4.67 42.5 3.17 22.33 3.5 53.5-5.17z" class="st0"/><path id="Floor_15" d="M2819.13 2718.83v49.34l-83.63-5.17-53.5 5.17-22.33-3.5-42.5-3.17-49.67-4.67 46.83-7.61-70.55-4.89-16.34-2.22-57.55 7.11-.78-13.33-18.11-1-87-6.56-56.67 6-37.22-2.66s-.33-5.56 0-5.78-57.67-6-57.67-6l-17.44 4.78-56.11-4.78s50.61-8.39 51.44-8.89c.84-.5-121.83-10.5-121.83-10.5l-60.67 9.81h-9.33v-16.48l-155.17-13-52.5 9.67-64-5.33 1-5.5-82.72-7.67-11.55 3.78-84.34-6.89 41.78-12.67-154.67-13.11 1 8.22-52.33-4-23.11 7.45-62.67-5.56-48.22 18.34v28.22l-69-5.11-24.67 9.11-12.33 1.11v-28.22l12.22-2.56.67-40.33.42-.89c10.65-5.1 24.02-11.56 24.02-11.56l68.34 5.5v-28.66l49.66-23 61 6.33 24.5-9.5 51.34 3.33v-7.83l153.5 16.5-42.34 15.83 82 9.34 16.34-5.92 86.5 6.75-5.84 8.67 59.34 8.16 56.5-13.66 130.66 14.33-13.5 8.5 143.17 13v-7l88.5 9.5-53.83 12.33L2196 2665l17.5-5 61.67 5.67-4.5 7.5 36.83 4.33 58.17-7.83 85 7.83 163.33 18.67-45.11 9.27 30.33 1.12 17.45-2.56 42.33 4.67v6.77l22.11 2.12 60.67-7z" class="st0"/><path id="Floor_16" d="M2819.13 2670.83v48l-77.35-8.27-60.67 7-22.11-2.12v-6.77l-42.33-4.67-17.45 2.56-30.33-1.12 45.11-9.27-163.33-18.67-85-7.83-58.17 7.83-36.83-4.33 4.5-7.5-61.67-5.67-17.5 5-57.83-5.17 53.83-12.33-88.5-9.5v7l-143.17-13 13.5-8.5-130.66-14.33-56.5 13.66-59.34-8.16 5.84-8.67-86.5-6.75-16.34 5.92-82-9.34 42.34-15.83-153.5-16.5v7.83l-51.34-3.33-24.5 9.5-61-6.33-49.66 23v28.66l-68.34-5.5s-36.58 17.67-36.91 17.67l-1.25-27.83 14.66-4.42-1.05-37.42s.08-.62.24-1.7l25.98-14.41 67.78 7.34.72-36.39 49.33-27.84 60.84 9.67 23.5-9.67L1439 2496v-11.83l153.33 20.5-46.66 18.33 89 11.5 10.16-5 82.84 7.5v9.17l65.83 8.33 50.67-14.83 140.16 18.83-25 18.5 45.5 7.5 63.34-14 120 15.5-50.34 13 57.84 7.67 16-5.5 57.66 5.5v9.33l40.5 5.17 55.84-10.84 96.16 12-22.16 5.84v10.66l18 2.34 68.16-8.17 89.17 9-48.83 8.33.16 4.67 33.17 2.83 16.33-4.33 43.17 6.5-.83 7.17 23 1.33s58.09-7.58 59.16-7.83c1.09.24 78.8 10.16 78.8 10.16" class="st0"/><path id="Floor_17" d="M2819.13 2600.83v70s-77.71-9.92-78.8-10.16c-1.07.25-59.16 7.83-59.16 7.83l-23-1.33.83-7.17-43.17-6.5-16.33 4.33-33.17-2.83-.16-4.67L2615 2642l-89.17-9-68.16 8.17-18-2.34v-10.66l22.16-5.84-96.16-12-55.84 10.84-40.5-5.17v-9.33l-57.66-5.5-16 5.5-57.84-7.67 50.34-13-120-15.5-63.34 14-45.5-7.5 25-18.5-140.16-18.83-50.67 14.83-65.83-8.33V2537l-82.84-7.5-10.16 5-89-11.5 46.66-18.33-153.33-20.5V2496l-52.83-3.67-23.5 9.67-60.84-9.67-49.33 27.84-.72 36.39-67.78-7.34-38.67 21.45.34-7.89 3.55-3.34v-18.66l9.11-3.67-.11-32.78-12.66-1.89 1.44-22.77s-6.89-.11-7.78-4.56c-.89-4.44 0-5.33-3.11-8.89-3.11-3.55-8-20-6.67-22.66 1.34-2.67 7.56-4.89 15.89-12.45 8.34-7.55 10.78-11.11 13.89-13.33s13.78-2.22 20-4 4.89-.45 12-.89c7.11-.45 25.78.89 30.67.89s24.89-1.34 24.89-1.34l-4.45-24 2.23-20.44s5.77-6.22 7.11-7.56c1.33-1.33 19.11-16 21.77-17.77 2.67-1.78 14.67-7.56 17.34-8.89 2.66-1.34 16 .89 25.78 2.66 9.77 1.78 32 2.67 40.88 1.34 8.89-1.34 6.23-.89 12-3.11 5.78-2.23 8.45-3.56 11.56-4.89 3.11-1.34 11.56-8.89 13.78-9.34 2.22-.44 41.33 2.67 44.44 2.67s72 12 72 12 32.45 7.11 39.56 8.89 18.22-1.78 18.66 0c.45 1.78 4 14.22 4 14.22s7.12 16 11.56 17.78 28.89 4.44 38.22 5.33c9.34.89 13.78 0 13.78 0l-.44 49.32s4.32.51 10.11 1.2v27.48l79.16 16.67 67.34 8.33 48.83-15.5 141.33 21-18.33 8-.17 16.17 40 6.67L2067 2506l122.83 17.17-51.83 15 58.17 8.66 15.66-4 95.67 20 55.67-10.83 97.66 13.83-21.5 7.17.17 13.83 19.83 1 66.84-11.5 88 13.67-48.67 8.67 52 8.83 41.5 6.83-1.17-50.78c3.51.38 24.58 2.59 27.17 2.28 2.83-.33 7.83-6.16 7.83-6.16s22 .5 23.67.5 21.5-6 21.5-6 25.17 10 25.83 10c.67 0 26.67 2.66 27.17 2.66h18.83l4 12s-6.66 8.67-7.16 8.97c-.5.29-5.67 8.87-5.67 8.87z" class="st0"/><path id="Floor_18" d="m2659 2614.33-41.5-6.83-52-8.83 48.67-8.67-88-13.67-66.84 11.5-19.83-1-.17-13.83 21.5-7.17-97.66-13.83-55.67 10.83-95.67-20-15.66 4-58.17-8.66 51.83-15L2067 2506l-62.17 14.67-40-6.67.17-16.17 18.33-8-141.33-21-48.83 15.5-67.34-8.33-79.16-16.67v-61l79 8.34 63.66 10.66 55.34-20 136.66 25.84-19.16 8.16-.5 19.84 43.66 6.83 63.67-18.5 121.17 22.33-54.34 15.17 59.67 10 17-2.33 56.83 8.83-1.16 7.17 39.33 6 57.17-14.17 95.66 17.17-21.16 7.16-.67 13.67 21.83 2 61.17-10.83 91.17 14.83-46 7.5-.67 7.5 32.67 4.67L2616 2552l41.66 4.17z" class="st0"/><path id="Floor_19" d="M2657.66 2556.17 2616 2552l-17.33 4.17-32.67-4.67.67-7.5 46-7.5-91.17-14.83-61.17 10.83-21.83-2 .67-13.67 21.16-7.16-95.66-17.17-57.17 14.17-39.33-6 1.16-7.17-56.83-8.83-17 2.33-59.67-10 54.34-15.17L2069 2439.5l-63.67 18.5-43.66-6.83.5-19.84 19.16-8.16-136.66-25.84-55.34 20-63.66-10.66-79-8.34-71.67-37V2314l72.44-12.22 80.67 16.44-1.78 21.56 66.45 10.44 50.44-21.78 139.56 28-21.56 9.12.22 21.55 43.78 7.33 62.22-19.77 121.12 24-51.12 18.22 58 10.22 15.56-5.33 56.44 8.89v11.55l38.45 6.45 57.33-14.67 96.22 18.67-19.11 8-1.55 16.66 20.66 1.78 64.67-13.11 87.56 17.78-44.45 8.44-1.33 7.56 32 4.66 17.78-3.77 41.28 5.55z" class="st0"/><path id="Floor_20" d="m1575 2314 72.44-12.22 80.67 16.44-1.78 21.56 66.45 10.44 50.44-21.78 139.56 28-21.56 9.12.22 21.55 43.78 7.33 62.22-19.77 121.12 24-51.12 18.22 58 10.22 15.56-5.33 56.44 8.89v11.55l38.45 6.45 57.33-14.67 96.22 18.67-19.11 8-1.55 16.66 20.66 1.78 64.67-13.11 87.56 17.78-44.45 8.44-1.33 7.56 32 4.66 17.78-3.77 41.28 5.55-2.39-103.55 5.77-2v-5.11h-6.22l-1.55-10.89 5.1-1.56 2.67-3.33-46.44-11.34-29.78 6.23-.67-7.34 54.45-13.55 7.55-6.45L2591 2309l-9.33-.67.66-6.55L1529.67 2019l-101 78.67v7.33l-66.17 55.33 6 5.5 73 16.17-2.5 136z" class="st0"/></svg>